<svg width="24" height="25" viewBox="0 0 24 25" fill="none" xmlns="http://www.w3.org/2000/svg">
<path d="M12 14.0293C11.2583 14.0293 10.5333 13.8094 9.91661 13.3973C9.29993 12.9853 8.81928 12.3996 8.53545 11.7144C8.25162 11.0291 8.17736 10.2751 8.32206 9.54771C8.46675 8.82028 8.8239 8.1521 9.34835 7.62765C9.8728 7.1032 10.541 6.74605 11.2684 6.60135C11.9958 6.45666 12.7498 6.53092 13.4351 6.81475C14.1203 7.09858 14.706 7.57923 15.118 8.19591C15.5301 8.81259 15.75 9.53762 15.75 10.2793C15.7488 11.2735 15.3533 12.2266 14.6503 12.9296C13.9473 13.6326 12.9942 14.0281 12 14.0293ZM12 8.0293C11.555 8.0293 11.12 8.16126 10.75 8.40849C10.38 8.65573 10.0916 9.00713 9.92127 9.41826C9.75098 9.82939 9.70642 10.2818 9.79323 10.7183C9.88005 11.1547 10.0943 11.5556 10.409 11.8703C10.7237 12.185 11.1246 12.3992 11.561 12.4861C11.9975 12.5729 12.4499 12.5283 12.861 12.358C13.2722 12.1877 13.6236 11.8993 13.8708 11.5293C14.118 11.1593 14.25 10.7243 14.25 10.2793C14.2494 9.68274 14.0122 9.11079 13.5903 8.68897C13.1685 8.26714 12.5966 8.02989 12 8.0293Z" fill="white"/>
<path d="M12 23.0293L5.67301 15.5675C5.58509 15.4555 5.49809 15.3428 5.41201 15.2293C4.33179 13.8053 3.74799 12.0666 3.75001 10.2793C3.75001 8.09126 4.6192 5.99284 6.16637 4.44567C7.71355 2.89849 9.81197 2.0293 12 2.0293C14.188 2.0293 16.2865 2.89849 17.8336 4.44567C19.3808 5.99284 20.25 8.09126 20.25 10.2793C20.2517 12.0658 19.6682 13.8036 18.5888 15.227L18.588 15.2293C18.588 15.2293 18.363 15.5248 18.3293 15.5645L12 23.0293ZM6.60975 14.3255C6.60975 14.3255 6.7845 14.5565 6.82425 14.606L12 20.7103L17.1825 14.5978C17.2155 14.5565 17.391 14.324 17.3918 14.3233C18.2747 13.1602 18.7518 11.7396 18.75 10.2793C18.75 8.48909 18.0388 6.7722 16.773 5.50633C15.5071 4.24046 13.7902 3.5293 12 3.5293C10.2098 3.5293 8.4929 4.24046 7.22703 5.50633C5.96116 6.7722 5.25001 8.48909 5.25001 10.2793C5.24815 11.7405 5.72584 13.162 6.60975 14.3255Z" fill="white"/>
</svg>
